<svg xmlns="http://www.w3.org/2000/svg" viewBox="0 0 600 520" xmlns="http://www.w3.org/2000/svg" aria-hidden="true"><defs><linearGradient id="wsh" x1="0" y1="0" x2="1" y2="1"><stop offset="0" stop-color="#3B82F6"/><stop offset="1" stop-color="#0B3E9C"/></linearGradient><radialGradient id="wgl"><stop offset="0" stop-color="#1565D8" stop-opacity=".35"/><stop offset="1" stop-color="#1565D8" stop-opacity="0"/></radialGradient><clipPath id="wcl"><rect x="0" y="0" width="600" height="520" rx="20"/></clipPath></defs><g clip-path="url(#wcl)"><circle cx="60" cy="60" r="2" fill="rgba(138,180,255,.14)"/><circle cx="112" cy="60" r="2" fill="rgba(138,180,255,.14)"/><circle cx="164" cy="60" r="2" fill="rgba(138,180,255,.14)"/><circle cx="216" cy="60" r="2" fill="rgba(138,180,255,.14)"/><circle cx="268" cy="60" r="2" fill="rgba(138,180,255,.14)"/><circle cx="320" cy="60" r="2" fill="rgba(138,180,255,.14)"/><circle cx="372" cy="60" r="2" fill="rgba(138,180,255,.14)"/><circle cx="424" cy="60" r="2" fill="rgba(138,180,255,.14)"/><circle cx="476" cy="60" r="2" fill="rgba(138,180,255,.14)"/><circle cx="528" cy="60" r="2" fill="rgba(138,180,255,.14)"/><circle cx="580" cy="60" r="2" fill="rgba(138,180,255,.14)"/><circle cx="60" cy="140" r="2" fill="rgba(138,180,255,.14)"/><circle cx="112" cy="140" r="2" fill="rgba(138,180,255,.14)"/><circle cx="164" cy="140" r="2" fill="rgba(138,180,255,.14)"/><circle cx="216" cy="140" r="2" fill="rgba(138,180,255,.14)"/><circle cx="268" cy="140" r="2" fill="rgba(138,180,255,.14)"/><circle cx="320" cy="140" r="2" fill="rgba(138,180,255,.14)"/><circle cx="372" cy="140" r="2" fill="rgba(138,180,255,.14)"/><circle cx="424" cy="140" r="2" fill="rgba(138,180,255,.14)"/><circle cx="476" cy="140" r="2" fill="rgba(138,180,255,.14)"/><circle cx="528" cy="140" r="2" fill="rgba(138,180,255,.14)"/><circle cx="580" cy="140" r="2" fill="rgba(138,180,255,.14)"/><circle cx="60" cy="220" r="2" fill="rgba(138,180,255,.14)"/><circle cx="112" cy="220" r="2" fill="rgba(138,180,255,.14)"/><circle cx="164" cy="220" r="2" fill="rgba(138,180,255,.14)"/><circle cx="216" cy="220" r="2" fill="rgba(138,180,255,.14)"/><circle cx="268" cy="220" r="2" fill="rgba(138,180,255,.14)"/><circle cx="320" cy="220" r="2" fill="rgba(138,180,255,.14)"/><circle cx="372" cy="220" r="2" fill="rgba(138,180,255,.14)"/><circle cx="424" cy="220" r="2" fill="rgba(138,180,255,.14)"/><circle cx="476" cy="220" r="2" fill="rgba(138,180,255,.14)"/><circle cx="528" cy="220" r="2" fill="rgba(138,180,255,.14)"/><circle cx="580" cy="220" r="2" fill="rgba(138,180,255,.14)"/><circle cx="60" cy="300" r="2" fill="rgba(138,180,255,.14)"/><circle cx="112" cy="300" r="2" fill="rgba(138,180,255,.14)"/><circle cx="164" cy="300" r="2" fill="rgba(138,180,255,.14)"/><circle cx="216" cy="300" r="2" fill="rgba(138,180,255,.14)"/><circle cx="268" cy="300" r="2" fill="rgba(138,180,255,.14)"/><circle cx="320" cy="300" r="2" fill="rgba(138,180,255,.14)"/><circle cx="372" cy="300" r="2" fill="rgba(138,180,255,.14)"/><circle cx="424" cy="300" r="2" fill="rgba(138,180,255,.14)"/><circle cx="476" cy="300" r="2" fill="rgba(138,180,255,.14)"/><circle cx="528" cy="300" r="2" fill="rgba(138,180,255,.14)"/><circle cx="580" cy="300" r="2" fill="rgba(138,180,255,.14)"/><circle cx="60" cy="380" r="2" fill="rgba(138,180,255,.14)"/><circle cx="112" cy="380" r="2" fill="rgba(138,180,255,.14)"/><circle cx="164" cy="380" r="2" fill="rgba(138,180,255,.14)"/><circle cx="216" cy="380" r="2" fill="rgba(138,180,255,.14)"/><circle cx="268" cy="380" r="2" fill="rgba(138,180,255,.14)"/><circle cx="320" cy="380" r="2" fill="rgba(138,180,255,.14)"/><circle cx="372" cy="380" r="2" fill="rgba(138,180,255,.14)"/><circle cx="424" cy="380" r="2" fill="rgba(138,180,255,.14)"/><circle cx="476" cy="380" r="2" fill="rgba(138,180,255,.14)"/><circle cx="528" cy="380" r="2" fill="rgba(138,180,255,.14)"/><circle cx="580" cy="380" r="2" fill="rgba(138,180,255,.14)"/><circle cx="60" cy="460" r="2" fill="rgba(138,180,255,.14)"/><circle cx="112" cy="460" r="2" fill="rgba(138,180,255,.14)"/><circle cx="164" cy="460" r="2" fill="rgba(138,180,255,.14)"/><circle cx="216" cy="460" r="2" fill="rgba(138,180,255,.14)"/><circle cx="268" cy="460" r="2" fill="rgba(138,180,255,.14)"/><circle cx="320" cy="460" r="2" fill="rgba(138,180,255,.14)"/><circle cx="372" cy="460" r="2" fill="rgba(138,180,255,.14)"/><circle cx="424" cy="460" r="2" fill="rgba(138,180,255,.14)"/><circle cx="476" cy="460" r="2" fill="rgba(138,180,255,.14)"/><circle cx="528" cy="460" r="2" fill="rgba(138,180,255,.14)"/><circle cx="580" cy="460" r="2" fill="rgba(138,180,255,.14)"/><circle cx="300" cy="250" r="150" fill="url(#wgl)"/><g><path d="M300 158l68 24v54c0 46-30 82-68 94-38-12-68-48-68-94v-54z" fill="url(#wsh)" stroke="#fff" stroke-width="2.5"/><g transform="translate(280.8,224.8) scale(1.6)" fill="none" stroke="#fff" stroke-width="2.2" stroke-linecap="round" stroke-linejoin="round"><rect x="3" y="11" width="18" height="11" rx="2"/><path d="M7 11V7a5 5 0 0110 0v4"/></g><animateTransform attributeName="transform" type="translate" values="0 0;0 -8;0 0" dur="5s" repeatCount="indefinite"/></g><text x="300" y="368" fill="#DCE7FF" font-size="10" font-family="IBM Plex Mono, monospace" text-anchor="middle" font-weight="700" letter-spacing="1">XcellSecure WAAP</text><rect x="30" y="210" width="150" height="52" rx="12" fill="rgba(4,30,66,.85)" stroke="#F87171"/><g transform="translate(43.6,227.6) scale(0.7)" fill="none" stroke="#F87171" stroke-width="2" stroke-linecap="round" stroke-linejoin="round"><path d="M10.3 3.9L1.8 18a2 2 0 001.7 3h17a2 2 0 001.7-3L13.7 3.9a2 2 0 00-3.4 0z"/><path d="M12 9v4M12 17h.01"/></g><text x="72" y="232" fill="#fff" font-size="11" font-family="Sora, sans-serif" font-weight="600">Malicious</text><text x="72" y="248" fill="#B9C8E4" font-size="10" font-family="IBM Plex Mono, monospace">user or bot</text><path d="M180 236 H228" stroke="#F87171" stroke-width="2" stroke-dasharray="5 5"/><path d="M222 230l8 6-8 6" fill="none" stroke="#F87171" stroke-width="2"/><circle r="4" fill="#F87171"><animateMotion dur="2.2s" repeatCount="indefinite" path="M180 236 H228"/><animate attributeName="opacity" values="1;1;0" keyTimes="0;.8;1" dur="2.2s" repeatCount="indefinite"/></circle><rect x="420" y="210" width="152" height="52" rx="12" fill="rgba(4,30,66,.85)" stroke="#4ADE80"/><g transform="translate(433.6,227.6) scale(0.7)" fill="none" stroke="#4ADE80" stroke-width="2" stroke-linecap="round" stroke-linejoin="round"><circle cx="12" cy="12" r="10"/><path d="M2 12h20M12 2a15 15 0 010 20M12 2a15 15 0 000 20"/></g><text x="462" y="232" fill="#fff" font-size="11" font-family="Sora, sans-serif" font-weight="600">Web &amp; API</text><text x="462" y="248" fill="#B9C8E4" font-size="10" font-family="IBM Plex Mono, monospace">requests</text><path d="M372 236 H420" stroke="#4ADE80" stroke-width="2"/><circle r="4" fill="#4ADE80"><animateMotion dur="2.4s" repeatCount="indefinite" path="M420 236 H372"/></circle><g><animateTransform attributeName="transform" type="translate" values="0 0;0 -6;0 0" dur="4s" begin="0s" repeatCount="indefinite"/><rect x="71" y="329" width="99" height="26" rx="13" fill="rgba(4,30,66,.8)" stroke="#8AB4FF"/><text x="120" y="346" fill="#8AB4FF" font-size="10" font-family="IBM Plex Mono, monospace" text-anchor="middle" font-weight="600">OWASP Top 10</text></g><g><animateTransform attributeName="transform" type="translate" values="0 0;0 -6;0 0" dur="4s" begin="0.6s" repeatCount="indefinite"/><rect x="263" y="367" width="73" height="26" rx="13" fill="rgba(4,30,66,.8)" stroke="#FFB15C"/><text x="300" y="384" fill="#FFB15C" font-size="10" font-family="IBM Plex Mono, monospace" text-anchor="middle" font-weight="600">zero-day</text></g><g><animateTransform attributeName="transform" type="translate" values="0 0;0 -6;0 0" dur="4s" begin="1.2s" repeatCount="indefinite"/><rect x="414" y="329" width="112" height="26" rx="13" fill="rgba(4,30,66,.8)" stroke="#4ADE80"/><text x="470" y="346" fill="#4ADE80" font-size="10" font-family="IBM Plex Mono, monospace" text-anchor="middle" font-weight="600">bots + L7 DDoS</text></g><text x="24" y="30" fill="#8AB4FF" font-size="8.5" font-family="IBM Plex Mono, monospace">FULL-LIFECYCLE WAAP · REAL-TIME</text><text x="576" y="30" fill="#4ADE80" font-size="8.5" font-family="IBM Plex Mono, monospace" text-anchor="end">2.4M requests inspected today</text></g></svg>