<svg viewBox="0 0 600 520" xmlns="http://www.w3.org/2000/svg" xmlns:xlink="http://www.w3.org/1999/xlink" aria-hidden="true"><defs><radialGradient id="mglow"><stop offset="0" stop-color="#16A34A" stop-opacity=".28"></stop><stop offset="1" stop-color="#16A34A" stop-opacity="0"></stop></radialGradient></defs><rect x="73.0" y="127.0" width="46" height="46" rx="12" fill="#071a38" stroke="#7F94BB" stroke-width="2"></rect><g transform="translate(85,139)" fill="none" stroke="#7F94BB" stroke-width="2" stroke-linecap="round" stroke-linejoin="round"><rect x="1" y="2" width="20" height="8" rx="2"></rect><rect x="1" y="13" width="20" height="8" rx="2"></rect><path d="M5 6h.01M5 17h.01"></path></g><rect x="73.0" y="227.0" width="46" height="46" rx="12" fill="#071a38" stroke="#7F94BB" stroke-width="2"></rect><g transform="translate(85,239)" fill="none" stroke="#7F94BB" stroke-width="2" stroke-linecap="round" stroke-linejoin="round"><ellipse cx="12" cy="5" rx="9" ry="3"></ellipse><path d="M21 12c0 1.7-4 3-9 3s-9-1.3-9-3M3 5v14c0 1.7 4 3 9 3s9-1.3 9-3V5"></path></g><rect x="73.0" y="327.0" width="46" height="46" rx="12" fill="#071a38" stroke="#7F94BB" stroke-width="2"></rect><g transform="translate(85,339)" fill="none" stroke="#7F94BB" stroke-width="2" stroke-linecap="round" stroke-linejoin="round"><rect x="3" y="3" width="18" height="18" rx="2"></rect><path d="M3 9h18M9 21V9"></path></g><rect x="56" y="118" width="80" height="264" rx="16" fill="none" stroke="rgba(127,148,187,.4)" stroke-dasharray="4 5"></rect><text x="96" y="106" fill="#7F94BB" font-size="8.5" font-family="IBM Plex Mono,monospace" text-anchor="middle" font-weight="700">LEGACY · OTHER CLOUD</text><path d="M140 250 C 260 150 340 150 452 250" fill="none" stroke="rgba(138,180,255,.28)" stroke-width="2" stroke-dasharray="3 5"></path><path d="M140 262 C 260 360 340 360 452 262" fill="none" stroke="rgba(138,180,255,.14)" stroke-width="1.5"></path><circle cx="496" cy="250" r="96" fill="url(#mglow)"></circle><g transform="translate(464.00 182.00) scale(2.6667)" fill="none" stroke="#8AB4FF" stroke-width="0.53" stroke-linecap="round" stroke-linejoin="round"><path d="M17.5 19a4.5 4.5 0 000-9 6 6 0 00-11.6 1.5A3.8 3.8 0 006.5 19h11z"></path></g><text x="496" y="250" fill="#8AB4FF" font-size="9" font-family="IBM Plex Mono,monospace" text-anchor="middle" font-weight="700" letter-spacing="1">XcellHost Cloud</text><rect x="476.0" y="130.0" width="40" height="40" rx="12" fill="#071a38" stroke="#4ADE80" stroke-width="2"></rect><g transform="translate(485,139)" fill="none" stroke="#4ADE80" stroke-width="2" stroke-linecap="round" stroke-linejoin="round"><rect x="1" y="2" width="20" height="8" rx="2"></rect><rect x="1" y="13" width="20" height="8" rx="2"></rect><path d="M5 6h.01M5 17h.01"></path></g><text x="496" y="182" fill="#DCE7FF" font-size="8.5" font-family="Sora,sans-serif" text-anchor="middle" font-weight="700">Core</text><rect x="476.0" y="352.0" width="40" height="40" rx="12" fill="#071a38" stroke="#FFB15C" stroke-width="2"></rect><g transform="translate(485,361)" fill="none" stroke="#FFB15C" stroke-width="2" stroke-linecap="round" stroke-linejoin="round"><rect x="1" y="2" width="20" height="8" rx="2"></rect><rect x="1" y="13" width="20" height="8" rx="2"></rect><path d="M5 6h.01M5 17h.01"></path></g><text x="496" y="404" fill="#DCE7FF" font-size="8.5" font-family="Sora,sans-serif" text-anchor="middle" font-weight="700">GPU</text><rect x="456" y="118" width="80" height="290" rx="16" fill="none" stroke="rgba(74,222,128,.35)" stroke-dasharray="4 5"></rect><text x="496" y="106" fill="#4ADE80" font-size="8.5" font-family="IBM Plex Mono,monospace" text-anchor="middle" font-weight="700">XCELLHOST · INDIA</text><g><g transform="translate(-9,-9)"><g transform="translate(-1.00 -1.00) scale(0.8333)" fill="none" stroke="#8AB4FF" stroke-width="2.40" stroke-linecap="round" stroke-linejoin="round"><rect x="1" y="2" width="20" height="8" rx="2"></rect><rect x="1" y="13" width="20" height="8" rx="2"></rect><path d="M5 6h.01M5 17h.01"></path></g><animateMotion path="M140 250 C 260 150 340 150 452 250" dur="4s" begin="0.0s" repeatCount="indefinite" rotate="0"></animateMotion><animate attributeName="opacity" values="0;1;1;1;0" keyTimes="0;0.1;0.5;0.85;1" dur="4s" begin="0.0s" repeatCount="indefinite"></animate></g></g><g><g transform="translate(-9,-9)"><g transform="translate(-1.00 -1.00) scale(0.8333)" fill="none" stroke="#4ADE80" stroke-width="2.40" stroke-linecap="round" stroke-linejoin="round"><ellipse cx="12" cy="5" rx="9" ry="3"></ellipse><path d="M21 12c0 1.7-4 3-9 3s-9-1.3-9-3M3 5v14c0 1.7 4 3 9 3s9-1.3 9-3V5"></path></g><animateMotion path="M140 250 C 260 150 340 150 452 250" dur="4s" begin="1.0s" repeatCount="indefinite" rotate="0"></animateMotion><animate attributeName="opacity" values="0;1;1;1;0" keyTimes="0;0.1;0.5;0.85;1" dur="4s" begin="1.0s" repeatCount="indefinite"></animate></g></g><g><g transform="translate(-9,-9)"><g transform="translate(-1.00 -1.00) scale(0.8333)" fill="none" stroke="#FFB15C" stroke-width="2.40" stroke-linecap="round" stroke-linejoin="round"><rect x="3" y="3" width="18" height="18" rx="2"></rect><path d="M3 9h18M9 21V9"></path></g><animateMotion path="M140 250 C 260 150 340 150 452 250" dur="4s" begin="2.0s" repeatCount="indefinite" rotate="0"></animateMotion><animate attributeName="opacity" values="0;1;1;1;0" keyTimes="0;0.1;0.5;0.85;1" dur="4s" begin="2.0s" repeatCount="indefinite"></animate></g></g><g><g transform="translate(-9,-9)"><g transform="translate(-1.00 -1.00) scale(0.8333)" fill="none" stroke="#8AB4FF" stroke-width="2.40" stroke-linecap="round" stroke-linejoin="round"><rect x="1" y="2" width="20" height="8" rx="2"></rect><rect x="1" y="13" width="20" height="8" rx="2"></rect><path d="M5 6h.01M5 17h.01"></path></g><animateMotion path="M140 250 C 260 150 340 150 452 250" dur="4s" begin="3.0s" repeatCount="indefinite" rotate="0"></animateMotion><animate attributeName="opacity" values="0;1;1;1;0" keyTimes="0;0.1;0.5;0.85;1" dur="4s" begin="3.0s" repeatCount="indefinite"></animate></g></g><g transform="translate(452,250)"><circle r="10" fill="none" stroke="#4ADE80" stroke-width="1.5"><animate attributeName="r" values="6;16" dur="1.6s" repeatCount="indefinite"></animate><animate attributeName="opacity" values=".8;0" dur="1.6s" repeatCount="indefinite"></animate></circle></g><text x="323" y="150" fill="#7F94BB" font-size="8.5" font-family="IBM Plex Mono,monospace" text-anchor="middle" font-weight="700">MIGRATION BRIDGE</text><text x="240" y="392" fill="#7F94BB" font-size="7.5" font-family="IBM Plex Mono,monospace" text-anchor="middle">SECURE</text><text x="300" y="392" fill="#7F94BB" font-size="7.5" font-family="IBM Plex Mono,monospace" text-anchor="middle">CONNECT</text><text x="360" y="392" fill="#7F94BB" font-size="7.5" font-family="IBM Plex Mono,monospace" text-anchor="middle">AUTO</text><text x="420" y="392" fill="#7F94BB" font-size="7.5" font-family="IBM Plex Mono,monospace" text-anchor="middle">GOVERN</text><text x="24" y="30" fill="#4ADE80" font-size="8.5" font-family="IBM Plex Mono,monospace">LIVE · WAVE 2 / 4 · REHEARSED</text><text x="576" y="30" fill="#7F94BB" font-size="8.5" font-family="IBM Plex Mono,monospace" text-anchor="end">rollback ready</text></svg>
