<svg xmlns="http://www.w3.org/2000/svg" viewBox="0 0 620 500" role="img" aria-labelledby="title desc">
  <title id="title">Cloud glossary knowledge diagram</title>
  <desc id="desc">A central cloud connected to compute, storage, network, security and artificial intelligence concepts.</desc>
  <defs>
    <linearGradient id="cloud" x1="0" y1="0" x2="1" y2="1"><stop stop-color="#50dcff"/><stop offset="1" stop-color="#1768df"/></linearGradient>
    <linearGradient id="panel" x1="0" y1="0" x2="1" y2="1"><stop stop-color="#0e4e9e"/><stop offset="1" stop-color="#062d65"/></linearGradient>
    <filter id="glow"><feGaussianBlur stdDeviation="8" result="b"/><feMerge><feMergeNode in="b"/><feMergeNode in="SourceGraphic"/></feMerge></filter>
  </defs>
  <g fill="none" stroke="#5ccfff" stroke-width="2" stroke-dasharray="5 7" opacity=".65">
    <path d="M310 225 112 105M310 225 505 100M310 225 92 358M310 225 510 360M310 225 310 444"/>
  </g>
  <g fill="#63dcff" filter="url(#glow)"><circle cx="202" cy="160" r="4"/><circle cx="414" cy="160" r="4"/><circle cx="205" cy="292" r="4"/><circle cx="419" cy="295" r="4"/></g>
  <g transform="translate(197 130)">
    <path d="M48 98c-32 0-48-17-48-40 0-21 15-38 36-41C46-9 72-20 98-8c17 8 28 22 31 40 28 1 50 21 50 48 0 10-3 18-8 25H48Z" fill="url(#cloud)" stroke="#a8edff" stroke-width="3" filter="url(#glow)"/>
    <path d="M62 65h54M89 39v52" stroke="#fff" stroke-width="6" stroke-linecap="round"/>
    <text x="89" y="132" fill="#d8f6ff" font-family="Arial,sans-serif" font-size="15" font-weight="700" text-anchor="middle">CLOUD KNOWLEDGE</text>
  </g>
  <g font-family="Arial,sans-serif" font-weight="700" text-anchor="middle">
    <g transform="translate(55 53)"><rect width="118" height="82" rx="18" fill="url(#panel)" stroke="#56c9ff"/><path d="M34 51h10V31H34v20Zm18 0h10V22H52v29Zm18 0h10V14H70v37Z" fill="#fff"/><text x="83" y="69" fill="#bcecff" font-size="12">COMPUTE</text></g>
    <g transform="translate(447 48)"><rect width="118" height="82" rx="18" fill="url(#panel)" stroke="#56c9ff"/><ellipse cx="35" cy="25" rx="16" ry="7" fill="none" stroke="#fff" stroke-width="3"/><path d="M19 25v26c0 9 32 9 32 0V25M19 38c0 9 32 9 32 0" fill="none" stroke="#fff" stroke-width="3"/><text x="83" y="69" fill="#bcecff" font-size="12">STORAGE</text></g>
    <g transform="translate(35 320)"><rect width="126" height="82" rx="18" fill="url(#panel)" stroke="#56c9ff"/><circle cx="35" cy="31" r="7" fill="#fff"/><circle cx="18" cy="18" r="5" fill="#69ddff"/><circle cx="53" cy="18" r="5" fill="#69ddff"/><path d="m22 21 9 7m18-7-9 7M35 38v12" stroke="#fff" stroke-width="3"/><text x="84" y="68" fill="#bcecff" font-size="12">NETWORK</text></g>
    <g transform="translate(458 320)"><rect width="126" height="82" rx="18" fill="url(#panel)" stroke="#56c9ff"/><path d="M35 13 55 21v15c0 15-9 25-20 31-11-6-20-16-20-31V21l20-8Z" fill="none" stroke="#fff" stroke-width="3"/><path d="m26 37 7 7 13-15" fill="none" stroke="#69efba" stroke-width="3"/><text x="87" y="68" fill="#bcecff" font-size="12">SECURITY</text></g>
    <g transform="translate(250 408)"><rect width="120" height="70" rx="18" fill="url(#panel)" stroke="#56c9ff"/><path d="M32 17v36m-13-9 13 9 13-9M19 26l13-9 13 9" fill="none" stroke="#fff" stroke-width="3"/><text x="82" y="43" fill="#bcecff" font-size="13">AI</text></g>
  </g>
</svg>
