<svg viewBox="0 0 600 520" xmlns="http://www.w3.org/2000/svg" aria-hidden="true"><defs><radialGradient id="igl"><stop offset="0" stop-color="#22D3EE" stop-opacity=".3"/><stop offset="1" stop-color="#22D3EE" stop-opacity="0"/></radialGradient><linearGradient id="icore" x1="0" y1="0" x2="1" y2="1"><stop offset="0" stop-color="#22D3EE"/><stop offset="1" stop-color="#1565D8"/></linearGradient><clipPath id="icl"><rect x="0" y="0" width="600" height="520" rx="20"/></clipPath></defs><g clip-path="url(#icl)"><circle cx="300" cy="262" r="180" fill="url(#igl)"/><line x1="159" y1="211" x2="300" y2="262" stroke="rgba(34,211,238,.28)" stroke-dasharray="3 5"><animate attributeName="stroke-dashoffset" from="0" to="16" dur="1.4s" repeatCount="indefinite"/></line><circle r="3" fill="#22D3EE"><animateMotion dur="2.0s" repeatCount="indefinite" path="M159 211 L300 262"/></circle><circle cx="159" cy="211" r="17" fill="rgba(4,30,66,.9)" stroke="#22D3EE" stroke-width="1.6"/><g transform="translate(150.6,202.3) scale(0.7)" fill="none" stroke="#67E8F9" stroke-width="2" stroke-linecap="round" stroke-linejoin="round"><path d="M22 12h-4l-3 9L9 3l-3 9H2"/></g><line x1="274" y1="114" x2="300" y2="262" stroke="rgba(34,211,238,.28)" stroke-dasharray="3 5"><animate attributeName="stroke-dashoffset" from="0" to="16" dur="1.8s" repeatCount="indefinite"/></line><circle r="3" fill="#22D3EE"><animateMotion dur="2.4s" repeatCount="indefinite" path="M274 114 L300 262"/></circle><circle cx="274" cy="114" r="17" fill="rgba(4,30,66,.9)" stroke="#22D3EE" stroke-width="1.6"/><g transform="translate(265.6,105.9) scale(0.7)" fill="none" stroke="#67E8F9" stroke-width="2" stroke-linecap="round" stroke-linejoin="round"><rect x="2" y="3" width="20" height="14" rx="2"/><path d="M8 21h8M12 17v4"/></g><line x1="415" y1="166" x2="300" y2="262" stroke="rgba(34,211,238,.28)" stroke-dasharray="3 5"><animate attributeName="stroke-dashoffset" from="0" to="16" dur="2.2s" repeatCount="indefinite"/></line><circle r="3" fill="#22D3EE"><animateMotion dur="2.8s" repeatCount="indefinite" path="M415 166 L300 262"/></circle><circle cx="415" cy="166" r="17" fill="rgba(4,30,66,.9)" stroke="#22D3EE" stroke-width="1.6"/><g transform="translate(406.5,157.2) scale(0.7)" fill="none" stroke="#67E8F9" stroke-width="2" stroke-linecap="round" stroke-linejoin="round"><path d="M12 14l4-4M3.5 18a9 9 0 1117 0"/></g><line x1="441" y1="313" x2="300" y2="262" stroke="rgba(34,211,238,.28)" stroke-dasharray="3 5"><animate attributeName="stroke-dashoffset" from="0" to="16" dur="1.4s" repeatCount="indefinite"/></line><circle r="3" fill="#22D3EE"><animateMotion dur="3.2s" repeatCount="indefinite" path="M441 313 L300 262"/></circle><circle cx="441" cy="313" r="17" fill="rgba(4,30,66,.9)" stroke="#22D3EE" stroke-width="1.6"/><g transform="translate(432.6,304.9) scale(0.7)" fill="none" stroke="#67E8F9" stroke-width="2" stroke-linecap="round" stroke-linejoin="round"><path d="M4 21v-7M4 10V3M12 21v-9M12 8V3M20 21v-5M20 12V3M1 14h6M9 8h6M17 16h6"/></g><line x1="326" y1="410" x2="300" y2="262" stroke="rgba(34,211,238,.28)" stroke-dasharray="3 5"><animate attributeName="stroke-dashoffset" from="0" to="16" dur="1.8s" repeatCount="indefinite"/></line><circle r="3" fill="#22D3EE"><animateMotion dur="2.0s" repeatCount="indefinite" path="M326 410 L300 262"/></circle><circle cx="326" cy="410" r="17" fill="rgba(4,30,66,.9)" stroke="#22D3EE" stroke-width="1.6"/><g transform="translate(317.6,401.3) scale(0.7)" fill="none" stroke="#67E8F9" stroke-width="2" stroke-linecap="round" stroke-linejoin="round"><rect x="4" y="4" width="16" height="16" rx="2"/><rect x="9" y="9" width="6" height="6"/><path d="M9 1v3M15 1v3M9 20v3M15 20v3M1 9h3M1 15h3M20 9h3M20 15h3"/></g><line x1="185" y1="358" x2="300" y2="262" stroke="rgba(34,211,238,.28)" stroke-dasharray="3 5"><animate attributeName="stroke-dashoffset" from="0" to="16" dur="2.2s" repeatCount="indefinite"/></line><circle r="3" fill="#22D3EE"><animateMotion dur="2.4s" repeatCount="indefinite" path="M185 358 L300 262"/></circle><circle cx="185" cy="358" r="17" fill="rgba(4,30,66,.9)" stroke="#22D3EE" stroke-width="1.6"/><g transform="translate(176.7,350.0) scale(0.7)" fill="none" stroke="#67E8F9" stroke-width="2" stroke-linecap="round" stroke-linejoin="round"><rect x="5" y="2" width="14" height="20" rx="2"/><path d="M12 18h.01"/></g><line x1="159" y1="211" x2="300" y2="262" stroke="rgba(34,211,238,.28)" stroke-dasharray="3 5"><animate attributeName="stroke-dashoffset" from="0" to="16" dur="1.4s" repeatCount="indefinite"/></line><circle r="3" fill="#22D3EE"><animateMotion dur="2.8s" repeatCount="indefinite" path="M159 211 L300 262"/></circle><circle cx="159" cy="211" r="17" fill="rgba(4,30,66,.9)" stroke="#22D3EE" stroke-width="1.6"/><g transform="translate(150.6,202.3) scale(0.7)" fill="none" stroke="#67E8F9" stroke-width="2" stroke-linecap="round" stroke-linejoin="round"><circle cx="12" cy="12" r="2"/><path d="M16.2 7.8a6 6 0 010 8.4M7.8 16.2a6 6 0 010-8.4M19.1 4.9a10 10 0 010 14.2M4.9 19.1a10 10 0 010-14.2"/></g><line x1="159" y1="313" x2="300" y2="262" stroke="rgba(34,211,238,.28)" stroke-dasharray="3 5"><animate attributeName="stroke-dashoffset" from="0" to="16" dur="1.8s" repeatCount="indefinite"/></line><circle r="3" fill="#22D3EE"><animateMotion dur="3.2s" repeatCount="indefinite" path="M159 313 L300 262"/></circle><circle cx="159" cy="313" r="17" fill="rgba(4,30,66,.9)" stroke="#22D3EE" stroke-width="1.6"/><g transform="translate(150.6,304.9) scale(0.7)" fill="none" stroke="#67E8F9" stroke-width="2" stroke-linecap="round" stroke-linejoin="round"><circle cx="12" cy="12" r="10"/><path d="M2 12h20M12 2a15 15 0 010 20M12 2a15 15 0 000 20"/></g><line x1="300" y1="220" x2="300" y2="94" stroke="rgba(138,180,255,.4)" stroke-width="2" stroke-dasharray="4 4"><animate attributeName="stroke-dashoffset" from="24" to="0" dur="1.6s" repeatCount="indefinite"/></line><circle r="4" fill="#4ADE80"><animateMotion dur="2s" repeatCount="indefinite" path="M300 220 L300 94"/></circle><g transform="translate(300,60)"><rect x="-70" y="-24" width="140" height="48" rx="24" fill="rgba(4,30,66,.9)" stroke="#8AB4FF"/><g transform="translate(249.0,51.0) scale(0.75)" fill="none" stroke="#8AB4FF" stroke-width="2" stroke-linecap="round" stroke-linejoin="round"><path d="M17.5 19a4.5 4.5 0 000-9 6 6 0 00-11.6 1.5A3.8 3.8 0 006.5 19h11z"/></g><text x="306" y="64" fill="#DCE7FF" font-size="11" font-family="IBM Plex Mono, monospace" text-anchor="middle" font-weight="600">Cloud + analytics</text></g><circle cx="300" cy="262" r="46" fill="none" stroke="#22D3EE" stroke-opacity=".4"><animate attributeName="r" values="40;64" dur="2.6s" repeatCount="indefinite"/><animate attributeName="opacity" values=".6;0" dur="2.6s" repeatCount="indefinite"/></circle><circle cx="300" cy="262" r="40" fill="url(#icore)" stroke="#67E8F9" stroke-width="2"/><g transform="translate(286.8,244.8) scale(1.1)" fill="none" stroke="#fff" stroke-width="2" stroke-linecap="round" stroke-linejoin="round"><circle cx="12" cy="12" r="2"/><path d="M16.2 7.8a6 6 0 010 8.4M7.8 16.2a6 6 0 010-8.4M19.1 4.9a10 10 0 010 14.2M4.9 19.1a10 10 0 010-14.2"/></g><text x="300" y="280" fill="#CFFAFE" font-size="8" font-family="IBM Plex Mono, monospace" text-anchor="middle" font-weight="700">EDGE GW</text><text x="24" y="30" fill="#22D3EE" font-size="8.5" font-family="IBM Plex Mono, monospace">DEVICES → EDGE → CLOUD · SOVEREIGN IoT</text><text x="576" y="30" fill="#4ADE80" font-size="8.5" font-family="IBM Plex Mono, monospace" text-anchor="end">500K+ devices / cluster</text></g></svg>