<svg viewBox="0 0 600 520" xmlns="http://www.w3.org/2000/svg" xmlns:xlink="http://www.w3.org/1999/xlink" aria-hidden="true"><defs><radialGradient id="lpg"><stop offset="0" stop-color="#1565D8" stop-opacity=".26"/><stop offset="1" stop-color="#1565D8" stop-opacity="0"/></radialGradient></defs><circle cx="300" cy="220" r="230" fill="url(#lpg)"/><path d="M70 120 C150 90 170 90 210 80 C300 60 320 120 350 140 C420 175 440 110 470 90" fill="none" stroke="rgba(138,180,255,.25)" stroke-width="2.5" stroke-dasharray="5 6"/><path d="M470 90 C430 200 360 240 300 300 C240 355 190 330 140 320" fill="none" stroke="rgba(138,180,255,.25)" stroke-width="2.5" stroke-dasharray="5 6"/><circle cx="70" cy="120" r="30" fill="none" stroke="#8AB4FF" stroke-width="1.4"><animate attributeName="r" values="26;40" dur="2.6s" begin="0.0s" repeatCount="indefinite"/><animate attributeName="opacity" values=".6;0" dur="2.6s" begin="0.0s" repeatCount="indefinite"/></circle><circle cx="70" cy="120" r="26" fill="#071a38" stroke="#8AB4FF" stroke-width="2.5"/><g transform="translate(58.00 108.00) scale(1.0000)" fill="none" stroke="#8AB4FF" stroke-width="2.00" stroke-linecap="round" stroke-linejoin="round"><path d="M22 10L12 5 2 10l10 5 10-5z"/><path d="M6 12v5c0 1 2.7 3 6 3s6-2 6-3v-5"/></g><circle cx="88" cy="102" r="8" fill="#16A34A"/><g transform="translate(82.50 96.50) scale(0.4583)" fill="none" stroke="#fff" stroke-width="5.67" stroke-linecap="round" stroke-linejoin="round"><path d="M20 6L9 17l-5-5"/></g><text x="70" y="162" fill="#DCE7FF" font-size="9.5" font-family="Sora,sans-serif" text-anchor="middle" font-weight="700">Fundamentals</text><circle cx="210" cy="80" r="30" fill="none" stroke="#4ADE80" stroke-width="1.4"><animate attributeName="r" values="26;40" dur="2.6s" begin="0.5s" repeatCount="indefinite"/><animate attributeName="opacity" values=".6;0" dur="2.6s" begin="0.5s" repeatCount="indefinite"/></circle><circle cx="210" cy="80" r="26" fill="#071a38" stroke="#4ADE80" stroke-width="2.5"/><g transform="translate(198.00 68.00) scale(1.0000)" fill="none" stroke="#4ADE80" stroke-width="2.00" stroke-linecap="round" stroke-linejoin="round"><rect x="3" y="3" width="18" height="18" rx="2"/><path d="M3 9h18M9 21V9"/></g><circle cx="228" cy="62" r="8" fill="#16A34A"/><g transform="translate(222.50 56.50) scale(0.4583)" fill="none" stroke="#fff" stroke-width="5.67" stroke-linecap="round" stroke-linejoin="round"><path d="M20 6L9 17l-5-5"/></g><text x="210" y="122" fill="#DCE7FF" font-size="9.5" font-family="Sora,sans-serif" text-anchor="middle" font-weight="700">Office apps</text><circle cx="350" cy="140" r="30" fill="none" stroke="#4ADE80" stroke-width="1.4"><animate attributeName="r" values="26;40" dur="2.6s" begin="0.9s" repeatCount="indefinite"/><animate attributeName="opacity" values=".6;0" dur="2.6s" begin="0.9s" repeatCount="indefinite"/></circle><circle cx="350" cy="140" r="26" fill="#071a38" stroke="#4ADE80" stroke-width="2.5"/><g transform="translate(338.00 128.00) scale(1.0000)" fill="none" stroke="#4ADE80" stroke-width="2.00" stroke-linecap="round" stroke-linejoin="round"><path d="M17 21v-2a4 4 0 00-4-4H5a4 4 0 00-4 4v2"/><circle cx="9" cy="7" r="4"/><path d="M23 21v-2a4 4 0 00-3-3.87M16 3.13a4 4 0 010 7.75"/></g><circle cx="368" cy="122" r="8" fill="#16A34A"/><g transform="translate(362.50 116.50) scale(0.4583)" fill="none" stroke="#fff" stroke-width="5.67" stroke-linecap="round" stroke-linejoin="round"><path d="M20 6L9 17l-5-5"/></g><text x="350" y="182" fill="#DCE7FF" font-size="9.5" font-family="Sora,sans-serif" text-anchor="middle" font-weight="700">Teams &amp; collab</text><circle cx="470" cy="90" r="26" fill="#071a38" stroke="#FFB15C" stroke-width="2.5"/><g transform="translate(458.00 78.00) scale(1.0000)" fill="none" stroke="#FFB15C" stroke-width="2.00" stroke-linecap="round" stroke-linejoin="round"><path d="M9 3a3 3 0 00-3 3 3 3 0 00-2 5 3 3 0 001 5 3 3 0 005 2 3 3 0 005-2 3 3 0 001-5 3 3 0 00-2-5 3 3 0 00-3-3 3 3 0 00-2 1 3 3 0 00-2-1z"/><path d="M12 5v14"/></g><text x="470" y="132" fill="#DCE7FF" font-size="9.5" font-family="Sora,sans-serif" text-anchor="middle" font-weight="700">Copilot &amp; AI</text><circle cx="300" cy="300" r="26" fill="#071a38" stroke="#A78BFA" stroke-width="2.5"/><g transform="translate(288.00 288.00) scale(1.0000)" fill="none" stroke="#A78BFA" stroke-width="2.00" stroke-linecap="round" stroke-linejoin="round"><path d="M12 2l8 3v6c0 5.5-3.5 9.7-8 11-4.5-1.3-8-5.5-8-11V5l8-3z"/><path d="M12 8v4M12 15h.01"/></g><text x="300" y="342" fill="#DCE7FF" font-size="9.5" font-family="Sora,sans-serif" text-anchor="middle" font-weight="700">Security &amp; compliance</text><circle cx="140" cy="320" r="26" fill="#071a38" stroke="#4ADE80" stroke-width="2.5"/><g transform="translate(128.00 308.00) scale(1.0000)" fill="none" stroke="#4ADE80" stroke-width="2.00" stroke-linecap="round" stroke-linejoin="round"><path d="M22 10L12 5 2 10l10 5 10-5z"/><path d="M6 12v5c0 1 2.7 3 6 3s6-2 6-3v-5"/></g><text x="140" y="362" fill="#DCE7FF" font-size="9.5" font-family="Sora,sans-serif" text-anchor="middle" font-weight="700">Certification</text><circle r="4.5" fill="#4ADE80"><animateMotion path="M70 120 C150 90 170 90 210 80 C300 60 320 120 350 140 C420 175 440 110 470 90" dur="4s" repeatCount="indefinite"/><animate attributeName="opacity" values="0;1;1;0" keyTimes="0;0.05;0.9;1" dur="4s" repeatCount="indefinite"/></circle><text x="24" y="30" fill="#4ADE80" font-size="8.5" font-family="IBM Plex Mono,monospace">LIVE · LEARNING PATH</text><text x="576" y="30" fill="#7F94BB" font-size="8.5" font-family="IBM Plex Mono,monospace" text-anchor="end">learn · certify · apply</text><text x="300" y="410" fill="#7F94BB" font-size="9" font-family="IBM Plex Mono,monospace" text-anchor="middle" font-weight="700">3 of 6 modules complete · 50%</text><rect x="200" y="422" width="200" height="8" rx="4" fill="rgba(138,180,255,.15)"/><rect x="200" y="422" width="0" height="8" rx="4" fill="#4ADE80"><animate attributeName="width" values="0;100" dur="2s" fill="freeze"/></rect></svg>